{
    "asset" : {
        "generator" : "Khronos glTF Blender I/O v1.6.16",
        "version" : "2.0"
    },
    "scene" : 0,
    "scenes" : [
        {
            "name" : "Scene",
            "nodes" : [
                0,
                1,
                2
            ]
        }
    ],
    "nodes" : [
        {
            "mesh" : 0,
            "name" : "Cube",
            "scale" : [
                1,
                2,
                0.8822435736656189
            ]
        },
        {
            "name" : "\u30b5\u30f3",
            "rotation" : [
                0.20598174631595612,
                -0.058176301419734955,
                -0.20938138663768768,
                0.9541208148002625
            ],
            "translation" : [
                10.052138328552246,
                19.943525314331055,
                9.867695808410645
            ]
        },
        {
            "name" : "\u30b5\u30f3.001",
            "rotation" : [
                0.050001610070466995,
                -0.1870233416557312,
                0.9547558426856995,
                0.22575066983699799
            ],
            "translation" : [
                -9.959917068481445,
                -17.444557189941406,
                -7.008830547332764
            ]
        }
    ],
    "materials" : [
        {
            "doubleSided" : true,
            "name" : "Material",
            "pbrMetallicRoughness" : {
                "baseColorFactor" : [
                    0.10653506219387054,
                    0.055624205619096756,
                    0.012652739882469177,
                    1
                ],
                "metallicFactor" : 0.9998999834060669,
                "roughnessFactor" : 0.20000000298023224
            }
        },
        {
            "doubleSided" : true,
            "name" : "\u30db\u30fc\u30e0\u30dc\u30bf\u30f3",
            "pbrMetallicRoughness" : {
                "baseColorFactor" : [
                    0.07323549687862396,
                    0.03856481611728668,
                    0.009036953561007977,
                    1
                ],
                "metallicFactor" : 0.9998999834060669,
                "roughnessFactor" : 0.20000000298023224
            }
        },
        {
            "doubleSided" : true,
            "name" : "\u753b\u9762",
            "pbrMetallicRoughness" : {
                "baseColorFactor" : [
                    0,
                    0,
                    0,
                    1
                ],
                "metallicFactor" : 0.8999999761581421,
                "roughnessFactor" : 0.009999999776482582
            }
        },
        {
            "doubleSided" : true,
            "name" : "\u30b7\u30eb\u30d0\u30fc",
            "pbrMetallicRoughness" : {
                "baseColorFactor" : [
                    0.5704714059829712,
                    0.5704714059829712,
                    0.5704714059829712,
                    1
                ],
                "metallicFactor" : 0.9990000128746033,
                "roughnessFactor" : 0.05000000074505806
            }
        },
        {
            "doubleSided" : true,
            "name" : "\u9ed2",
            "pbrMetallicRoughness" : {
                "baseColorFactor" : [
                    0,
                    0,
                    0,
                    1
                ],
                "metallicFactor" : 0.9998999834060669,
                "roughnessFactor" : 0.9998999834060669
            }
        }
    ],
    "meshes" : [
        {
            "name" : "Cube",
            "primitives" : [
                {
                    "attributes" : {
                        "POSITION" : 0,
                        "NORMAL" : 1,
                        "TEXCOORD_0" : 2
                    },
                    "indices" : 3,
                    "material" : 0
                },
                {
                    "attributes" : {
                        "POSITION" : 4,
                        "NORMAL" : 5,
                        "TEXCOORD_0" : 6
                    },
                    "indices" : 7,
                    "material" : 1
                },
                {
                    "attributes" : {
                        "POSITION" : 8,
                        "NORMAL" : 9,
                        "TEXCOORD_0" : 10
                    },
                    "indices" : 11,
                    "material" : 2
                },
                {
                    "attributes" : {
                        "POSITION" : 12,
                        "NORMAL" : 13,
                        "TEXCOORD_0" : 14
                    },
                    "indices" : 15,
                    "material" : 3
                },
                {
                    "attributes" : {
                        "POSITION" : 16,
                        "NORMAL" : 17,
                        "TEXCOORD_0" : 18
                    },
                    "indices" : 19,
                    "material" : 4
                }
            ]
        }
    ],
    "accessors" : [
        {
            "bufferView" : 0,
            "componentType" : 5126,
            "count" : 208,
            "max" : [
                0.985140860080719,
                0.0004994224291294813,
                1.972757339477539
            ],
            "min" : [
                -0.985140860080719,
                -0.10630188882350922,
                -1.9771171808242798
            ],
            "type" : "VEC3"
        },
        {
            "bufferView" : 1,
            "componentType" : 5126,
            "count" : 208,
            "type" : "VEC3"
        },
        {
            "bufferView" : 2,
            "componentType" : 5126,
            "count" : 208,
            "type" : "VEC2"
        },
        {
            "bufferView" : 3,
            "componentType" : 5123,
            "count" : 744,
            "type" : "SCALAR"
        },
        {
            "bufferView" : 4,
            "componentType" : 5126,
            "count" : 40,
            "max" : [
                0.9410771131515503,
                0.0004994224291294813,
                1.9490954875946045
            ],
            "min" : [
                -0.96070796251297,
                -0.06264032423496246,
                -0.9931700825691223
            ],
            "type" : "VEC3"
        },
        {
            "bufferView" : 5,
            "componentType" : 5126,
            "count" : 40,
            "type" : "VEC3"
        },
        {
            "bufferView" : 6,
            "componentType" : 5126,
            "count" : 40,
            "type" : "VEC2"
        },
        {
            "bufferView" : 7,
            "componentType" : 5123,
            "count" : 150,
            "type" : "SCALAR"
        },
        {
            "bufferView" : 8,
            "componentType" : 5126,
            "count" : 68,
            "max" : [
                0.8982934951782227,
                0.00047581797116436064,
                1.6827231645584106
            ],
            "min" : [
                -0.8975118398666382,
                -0.10630188882350922,
                -1.8967183828353882
            ],
            "type" : "VEC3"
        },
        {
            "bufferView" : 9,
            "componentType" : 5126,
            "count" : 68,
            "type" : "VEC3"
        },
        {
            "bufferView" : 10,
            "componentType" : 5126,
            "count" : 68,
            "type" : "VEC2"
        },
        {
            "bufferView" : 11,
            "componentType" : 5123,
            "count" : 300,
            "type" : "SCALAR"
        },
        {
            "bufferView" : 12,
            "componentType" : 5126,
            "count" : 58,
            "max" : [
                0.985140860080719,
                0.00048592491657473147,
                1.972757339477539
            ],
            "min" : [
                -0.985140860080719,
                -0.1051066592335701,
                -1.972757339477539
            ],
            "type" : "VEC3"
        },
        {
            "bufferView" : 13,
            "componentType" : 5126,
            "count" : 58,
            "type" : "VEC3"
        },
        {
            "bufferView" : 14,
            "componentType" : 5126,
            "count" : 58,
            "type" : "VEC2"
        },
        {
            "bufferView" : 15,
            "componentType" : 5123,
            "count" : 132,
            "type" : "SCALAR"
        },
        {
            "bufferView" : 16,
            "componentType" : 5126,
            "count" : 37,
            "max" : [
                0.049497995525598526,
                -0.03500187769532204,
                1.9333149194717407
            ],
            "min" : [
                -0.49678248167037964,
                -0.07218896597623825,
                -1.9771171808242798
            ],
            "type" : "VEC3"
        },
        {
            "bufferView" : 17,
            "componentType" : 5126,
            "count" : 37,
            "type" : "VEC3"
        },
        {
            "bufferView" : 18,
            "componentType" : 5126,
            "count" : 37,
            "type" : "VEC2"
        },
        {
            "bufferView" : 19,
            "componentType" : 5123,
            "count" : 120,
            "type" : "SCALAR"
        }
    ],
    "bufferViews" : [
        {
            "buffer" : 0,
            "byteLength" : 2496,
            "byteOffset" : 0
        },
        {
            "buffer" : 0,
            "byteLength" : 2496,
            "byteOffset" : 2496
        },
        {
            "buffer" : 0,
            "byteLength" : 1664,
            "byteOffset" : 4992
        },
        {
            "buffer" : 0,
            "byteLength" : 1488,
            "byteOffset" : 6656
        },
        {
            "buffer" : 0,
            "byteLength" : 480,
            "byteOffset" : 8144
        },
        {
            "buffer" : 0,
            "byteLength" : 480,
            "byteOffset" : 8624
        },
        {
            "buffer" : 0,
            "byteLength" : 320,
            "byteOffset" : 9104
        },
        {
            "buffer" : 0,
            "byteLength" : 300,
            "byteOffset" : 9424
        },
        {
            "buffer" : 0,
            "byteLength" : 816,
            "byteOffset" : 9724
        },
        {
            "buffer" : 0,
            "byteLength" : 816,
            "byteOffset" : 10540
        },
        {
            "buffer" : 0,
            "byteLength" : 544,
            "byteOffset" : 11356
        },
        {
            "buffer" : 0,
            "byteLength" : 600,
            "byteOffset" : 11900
        },
        {
            "buffer" : 0,
            "byteLength" : 696,
            "byteOffset" : 12500
        },
        {
            "buffer" : 0,
            "byteLength" : 696,
            "byteOffset" : 13196
        },
        {
            "buffer" : 0,
            "byteLength" : 464,
            "byteOffset" : 13892
        },
        {
            "buffer" : 0,
            "byteLength" : 264,
            "byteOffset" : 14356
        },
        {
            "buffer" : 0,
            "byteLength" : 444,
            "byteOffset" : 14620
        },
        {
            "buffer" : 0,
            "byteLength" : 444,
            "byteOffset" : 15064
        },
        {
            "buffer" : 0,
            "byteLength" : 296,
            "byteOffset" : 15508
        },
        {
            "buffer" : 0,
            "byteLength" : 240,
            "byteOffset" : 15804
        }
    ],
    "buffers" : [
        {
            "byteLength" : 16044,
            "uri" : "data:application/octet-stream;base64,"
        }
    ]
}
