{
    "asset" : {
        "generator" : "Khronos glTF Blender I/O v1.6.16",
        "version" : "2.0"
    },
    "scene" : 0,
    "scenes" : [
        {
            "name" : "Scene",
            "nodes" : [
                0
            ]
        }
    ],
    "nodes" : [
        {
            "mesh" : 0,
            "name" : "Cube",
            "scale" : [
                1,
                0.5,
                1
            ]
        }
    ],
    "materials" : [
        {
            "doubleSided" : true,
            "name" : "\u30de\u30c6\u30ea\u30a2\u30eb",
            "pbrMetallicRoughness" : {
                "baseColorFactor" : [
                    0.31853827834129333,
                    0.31853827834129333,
                    0.31853827834129333,
                    1
                ],
                "metallicFactor" : 8,
                "roughnessFactor" : 0.4000000059604645
            }
        },
        {
            "doubleSided" : true,
            "name" : "\u753b\u9762",
            "pbrMetallicRoughness" : {
                "baseColorFactor" : [
                    0,
                    0,
                    0,
                    1
                ],
                "metallicFactor" : 9.899999618530273,
                "roughnessFactor" : 0.20000000298023224
            }
        },
        {
            "doubleSided" : true,
            "name" : "\u30dc\u30bf\u30f3",
            "pbrMetallicRoughness" : {
                "baseColorFactor" : [
                    0.30000001192092896,
                    0.30000001192092896,
                    0.30000001192092896,
                    1
                ],
                "metallicFactor" : 8,
                "roughnessFactor" : 0.20000000298023224
            }
        },
        {
            "doubleSided" : true,
            "name" : "\u9ed2",
            "pbrMetallicRoughness" : {
                "baseColorFactor" : [
                    0,
                    0,
                    0,
                    1
                ]
            }
        }
    ],
    "meshes" : [
        {
            "name" : "Cube",
            "primitives" : [
                {
                    "attributes" : {
                        "POSITION" : 0,
                        "NORMAL" : 1,
                        "TEXCOORD_0" : 2
                    },
                    "indices" : 3,
                    "material" : 0
                },
                {
                    "attributes" : {
                        "POSITION" : 4,
                        "NORMAL" : 5,
                        "TEXCOORD_0" : 6
                    },
                    "indices" : 7,
                    "material" : 1
                },
                {
                    "attributes" : {
                        "POSITION" : 8,
                        "NORMAL" : 9,
                        "TEXCOORD_0" : 10
                    },
                    "indices" : 11,
                    "material" : 2
                },
                {
                    "attributes" : {
                        "POSITION" : 12,
                        "NORMAL" : 13,
                        "TEXCOORD_0" : 14
                    },
                    "indices" : 15,
                    "material" : 3
                }
            ]
        }
    ],
    "accessors" : [
        {
            "bufferView" : 0,
            "componentType" : 5126,
            "count" : 120,
            "max" : [
                1.0234193801879883,
                0.2020370364189148,
                2.000107526779175
            ],
            "min" : [
                -1,
                -0.20000000298023224,
                -2
            ],
            "type" : "VEC3"
        },
        {
            "bufferView" : 1,
            "componentType" : 5126,
            "count" : 120,
            "type" : "VEC3"
        },
        {
            "bufferView" : 2,
            "componentType" : 5126,
            "count" : 120,
            "type" : "VEC2"
        },
        {
            "bufferView" : 3,
            "componentType" : 5123,
            "count" : 588,
            "type" : "SCALAR"
        },
        {
            "bufferView" : 4,
            "componentType" : 5126,
            "count" : 27,
            "max" : [
                0.9418537616729736,
                0.2020254284143448,
                1.80066978931427
            ],
            "min" : [
                -0.9418537616729736,
                -0.263223797082901,
                -1.9418537616729736
            ],
            "type" : "VEC3"
        },
        {
            "bufferView" : 5,
            "componentType" : 5126,
            "count" : 27,
            "type" : "VEC3"
        },
        {
            "bufferView" : 6,
            "componentType" : 5126,
            "count" : 27,
            "type" : "VEC2"
        },
        {
            "bufferView" : 7,
            "componentType" : 5123,
            "count" : 63,
            "type" : "SCALAR"
        },
        {
            "bufferView" : 8,
            "componentType" : 5126,
            "count" : 74,
            "max" : [
                1.0517330169677734,
                0.2020370364189148,
                1.9257655143737793
            ],
            "min" : [
                -0.1887696385383606,
                -0.28054341673851013,
                -1.8280609846115112
            ],
            "type" : "VEC3"
        },
        {
            "bufferView" : 9,
            "componentType" : 5126,
            "count" : 74,
            "type" : "VEC3"
        },
        {
            "bufferView" : 10,
            "componentType" : 5126,
            "count" : 74,
            "type" : "VEC2"
        },
        {
            "bufferView" : 11,
            "componentType" : 5123,
            "count" : 294,
            "type" : "SCALAR"
        },
        {
            "bufferView" : 12,
            "componentType" : 5126,
            "count" : 16,
            "max" : [
                0.07000000774860382,
                0.030719337984919548,
                2.000107526779175
            ],
            "min" : [
                -0.0701594203710556,
                -0.03064621239900589,
                1.9009243249893188
            ],
            "type" : "VEC3"
        },
        {
            "bufferView" : 13,
            "componentType" : 5126,
            "count" : 16,
            "type" : "VEC3"
        },
        {
            "bufferView" : 14,
            "componentType" : 5126,
            "count" : 16,
            "type" : "VEC2"
        },
        {
            "bufferView" : 15,
            "componentType" : 5123,
            "count" : 66,
            "type" : "SCALAR"
        }
    ],
    "bufferViews" : [
        {
            "buffer" : 0,
            "byteLength" : 1440,
            "byteOffset" : 0
        },
        {
            "buffer" : 0,
            "byteLength" : 1440,
            "byteOffset" : 1440
        },
        {
            "buffer" : 0,
            "byteLength" : 960,
            "byteOffset" : 2880
        },
        {
            "buffer" : 0,
            "byteLength" : 1176,
            "byteOffset" : 3840
        },
        {
            "buffer" : 0,
            "byteLength" : 324,
            "byteOffset" : 5016
        },
        {
            "buffer" : 0,
            "byteLength" : 324,
            "byteOffset" : 5340
        },
        {
            "buffer" : 0,
            "byteLength" : 216,
            "byteOffset" : 5664
        },
        {
            "buffer" : 0,
            "byteLength" : 126,
            "byteOffset" : 5880
        },
        {
            "buffer" : 0,
            "byteLength" : 888,
            "byteOffset" : 6008
        },
        {
            "buffer" : 0,
            "byteLength" : 888,
            "byteOffset" : 6896
        },
        {
            "buffer" : 0,
            "byteLength" : 592,
            "byteOffset" : 7784
        },
        {
            "buffer" : 0,
            "byteLength" : 588,
            "byteOffset" : 8376
        },
        {
            "buffer" : 0,
            "byteLength" : 192,
            "byteOffset" : 8964
        },
        {
            "buffer" : 0,
            "byteLength" : 192,
            "byteOffset" : 9156
        },
        {
            "buffer" : 0,
            "byteLength" : 128,
            "byteOffset" : 9348
        },
        {
            "buffer" : 0,
            "byteLength" : 132,
            "byteOffset" : 9476
        }
    ],
    "buffers" : [
        {
            "byteLength" : 9608,
            "uri" : "data:application/octet-stream;base64,"
        }
    ]
}
