{
    "asset" : {
        "generator" : "Khronos glTF Blender I/O v1.6.16",
        "version" : "2.0"
    },
    "scene" : 0,
    "scenes" : [
        {
            "name" : "Scene",
            "nodes" : [
                0
            ]
        }
    ],
    "nodes" : [
        {
            "mesh" : 0,
            "name" : "Cube",
            "translation" : [
                0,
                0,
                2
            ]
        }
    ],
    "materials" : [
        {
            "doubleSided" : true,
            "name" : "Material",
            "pbrMetallicRoughness" : {
                "baseColorFactor" : [
                    0.498971551656723,
                    0.5,
                    0.29137808084487915,
                    1
                ],
                "metallicFactor" : 0,
                "roughnessFactor" : 0.4000000059604645
            }
        },
        {
            "doubleSided" : true,
            "name" : "\u30de\u30c6\u30ea\u30a2\u30eb",
            "pbrMetallicRoughness" : {
                "baseColorFactor" : [
                    0.5995954871177673,
                    0.6000000238418579,
                    0.3977999985218048,
                    1
                ],
                "metallicFactor" : 0,
                "roughnessFactor" : 0.5
            }
        },
        {
            "doubleSided" : true,
            "name" : "siruba",
            "pbrMetallicRoughness" : {
                "baseColorFactor" : [
                    0.43854326009750366,
                    0.43854326009750366,
                    0.43854326009750366,
                    1
                ],
                "metallicFactor" : 0.800000011920929,
                "roughnessFactor" : 0.20000000298023224
            }
        },
        {
            "doubleSided" : true,
            "name" : "\u9ed2",
            "pbrMetallicRoughness" : {
                "baseColorFactor" : [
                    0,
                    0,
                    0,
                    1
                ],
                "metallicFactor" : 0.9998999834060669
            }
        },
        {
            "doubleSided" : true,
            "name" : "\u30dc\u30bf\u30f3",
            "pbrMetallicRoughness" : {
                "baseColorFactor" : [
                    0.0331026092171669,
                    0.0331026092171669,
                    0.0331026092171669,
                    1
                ],
                "metallicFactor" : 0.5,
                "roughnessFactor" : 0.4000000059604645
            }
        },
        {
            "doubleSided" : true,
            "name" : "\u753b\u9762",
            "pbrMetallicRoughness" : {
                "baseColorFactor" : [
                    0,
                    0,
                    0,
                    1
                ],
                "metallicFactor" : 0.699999988079071,
                "roughnessFactor" : 0.30000001192092896
            }
        }
    ],
    "meshes" : [
        {
            "name" : "Cube",
            "primitives" : [
                {
                    "attributes" : {
                        "POSITION" : 0,
                        "NORMAL" : 1,
                        "TEXCOORD_0" : 2
                    },
                    "indices" : 3,
                    "material" : 0
                },
                {
                    "attributes" : {
                        "POSITION" : 4,
                        "NORMAL" : 5,
                        "TEXCOORD_0" : 6
                    },
                    "indices" : 7,
                    "material" : 1
                },
                {
                    "attributes" : {
                        "POSITION" : 8,
                        "NORMAL" : 9,
                        "TEXCOORD_0" : 10
                    },
                    "indices" : 11,
                    "material" : 2
                },
                {
                    "attributes" : {
                        "POSITION" : 12,
                        "NORMAL" : 13,
                        "TEXCOORD_0" : 14
                    },
                    "indices" : 15,
                    "material" : 3
                },
                {
                    "attributes" : {
                        "POSITION" : 16,
                        "NORMAL" : 17,
                        "TEXCOORD_0" : 18
                    },
                    "indices" : 19,
                    "material" : 4
                },
                {
                    "attributes" : {
                        "POSITION" : 20,
                        "NORMAL" : 21,
                        "TEXCOORD_0" : 22
                    },
                    "indices" : 23,
                    "material" : 5
                }
            ]
        }
    ],
    "accessors" : [
        {
            "bufferView" : 0,
            "componentType" : 5126,
            "count" : 585,
            "max" : [
                1,
                0.27950507402420044,
                1.5
            ],
            "min" : [
                -1,
                -0.20000000298023224,
                -4.762792110443115
            ],
            "type" : "VEC3"
        },
        {
            "bufferView" : 1,
            "componentType" : 5126,
            "count" : 585,
            "type" : "VEC3"
        },
        {
            "bufferView" : 2,
            "componentType" : 5126,
            "count" : 585,
            "type" : "VEC2"
        },
        {
            "bufferView" : 3,
            "componentType" : 5123,
            "count" : 1998,
            "type" : "SCALAR"
        },
        {
            "bufferView" : 4,
            "componentType" : 5126,
            "count" : 94,
            "max" : [
                1,
                0.27950507402420044,
                1.5
            ],
            "min" : [
                -1,
                -0.20000000298023224,
                -1.7702513933181763
            ],
            "type" : "VEC3"
        },
        {
            "bufferView" : 5,
            "componentType" : 5126,
            "count" : 94,
            "type" : "VEC3"
        },
        {
            "bufferView" : 6,
            "componentType" : 5126,
            "count" : 94,
            "type" : "VEC2"
        },
        {
            "bufferView" : 7,
            "componentType" : 5123,
            "count" : 210,
            "type" : "SCALAR"
        },
        {
            "bufferView" : 8,
            "componentType" : 5126,
            "count" : 89,
            "max" : [
                1,
                0.27950507402420044,
                1.5
            ],
            "min" : [
                -1,
                -0.0015314221382141113,
                -4.762792110443115
            ],
            "type" : "VEC3"
        },
        {
            "bufferView" : 9,
            "componentType" : 5126,
            "count" : 89,
            "type" : "VEC3"
        },
        {
            "bufferView" : 10,
            "componentType" : 5126,
            "count" : 89,
            "type" : "VEC2"
        },
        {
            "bufferView" : 11,
            "componentType" : 5123,
            "count" : 285,
            "type" : "SCALAR"
        },
        {
            "bufferView" : 12,
            "componentType" : 5126,
            "count" : 90,
            "max" : [
                0.86983722448349,
                0.20100854337215424,
                1.389343500137329
            ],
            "min" : [
                -0.86983722448349,
                0.19965144991874695,
                -1.3585842847824097
            ],
            "type" : "VEC3"
        },
        {
            "bufferView" : 13,
            "componentType" : 5126,
            "count" : 90,
            "type" : "VEC3"
        },
        {
            "bufferView" : 14,
            "componentType" : 5126,
            "count" : 90,
            "type" : "VEC2"
        },
        {
            "bufferView" : 15,
            "componentType" : 5123,
            "count" : 276,
            "type" : "SCALAR"
        },
        {
            "bufferView" : 16,
            "componentType" : 5126,
            "count" : 245,
            "max" : [
                0.8002282381057739,
                0.20205508172512054,
                1.3055095672607422
            ],
            "min" : [
                -0.8127970099449158,
                0.20099003612995148,
                -1.122266173362732
            ],
            "type" : "VEC3"
        },
        {
            "bufferView" : 17,
            "componentType" : 5126,
            "count" : 245,
            "type" : "VEC3"
        },
        {
            "bufferView" : 18,
            "componentType" : 5126,
            "count" : 245,
            "type" : "VEC2"
        },
        {
            "bufferView" : 19,
            "componentType" : 5123,
            "count" : 657,
            "type" : "SCALAR"
        },
        {
            "bufferView" : 20,
            "componentType" : 5126,
            "count" : 4,
            "max" : [
                0.912047803401947,
                0.272003710269928,
                -1.8578755855560303
            ],
            "min" : [
                -0.912047803401947,
                0.272003710269928,
                -4.676582336425781
            ],
            "type" : "VEC3"
        },
        {
            "bufferView" : 21,
            "componentType" : 5126,
            "count" : 4,
            "type" : "VEC3"
        },
        {
            "bufferView" : 22,
            "componentType" : 5126,
            "count" : 4,
            "type" : "VEC2"
        },
        {
            "bufferView" : 23,
            "componentType" : 5123,
            "count" : 6,
            "type" : "SCALAR"
        }
    ],
    "bufferViews" : [
        {
            "buffer" : 0,
            "byteLength" : 7020,
            "byteOffset" : 0
        },
        {
            "buffer" : 0,
            "byteLength" : 7020,
            "byteOffset" : 7020
        },
        {
            "buffer" : 0,
            "byteLength" : 4680,
            "byteOffset" : 14040
        },
        {
            "buffer" : 0,
            "byteLength" : 3996,
            "byteOffset" : 18720
        },
        {
            "buffer" : 0,
            "byteLength" : 1128,
            "byteOffset" : 22716
        },
        {
            "buffer" : 0,
            "byteLength" : 1128,
            "byteOffset" : 23844
        },
        {
            "buffer" : 0,
            "byteLength" : 752,
            "byteOffset" : 24972
        },
        {
            "buffer" : 0,
            "byteLength" : 420,
            "byteOffset" : 25724
        },
        {
            "buffer" : 0,
            "byteLength" : 1068,
            "byteOffset" : 26144
        },
        {
            "buffer" : 0,
            "byteLength" : 1068,
            "byteOffset" : 27212
        },
        {
            "buffer" : 0,
            "byteLength" : 712,
            "byteOffset" : 28280
        },
        {
            "buffer" : 0,
            "byteLength" : 570,
            "byteOffset" : 28992
        },
        {
            "buffer" : 0,
            "byteLength" : 1080,
            "byteOffset" : 29564
        },
        {
            "buffer" : 0,
            "byteLength" : 1080,
            "byteOffset" : 30644
        },
        {
            "buffer" : 0,
            "byteLength" : 720,
            "byteOffset" : 31724
        },
        {
            "buffer" : 0,
            "byteLength" : 552,
            "byteOffset" : 32444
        },
        {
            "buffer" : 0,
            "byteLength" : 2940,
            "byteOffset" : 32996
        },
        {
            "buffer" : 0,
            "byteLength" : 2940,
            "byteOffset" : 35936
        },
        {
            "buffer" : 0,
            "byteLength" : 1960,
            "byteOffset" : 38876
        },
        {
            "buffer" : 0,
            "byteLength" : 1314,
            "byteOffset" : 40836
        },
        {
            "buffer" : 0,
            "byteLength" : 48,
            "byteOffset" : 42152
        },
        {
            "buffer" : 0,
            "byteLength" : 48,
            "byteOffset" : 42200
        },
        {
            "buffer" : 0,
            "byteLength" : 32,
            "byteOffset" : 42248
        },
        {
            "buffer" : 0,
            "byteLength" : 12,
            "byteOffset" : 42280
        }
    ],
    "buffers" : [
        {
            "byteLength" : 42292,
            "uri" : "data:application/octet-stream;base64,"
        }
    ]
}
